<?xml version="1.0" standalone="no"?>
<!DOCTYPE svg PUBLIC "-//W3C//DTD SVG 20010904//EN"
 "http://www.w3.org/TR/2001/REC-SVG-20010904/DTD/svg10.dtd">
<svg version="1.0" xmlns="http://www.w3.org/2000/svg"
 width="512.000000pt" height="512.000000pt" viewBox="0 0 512.000000 512.000000"
 preserveAspectRatio="xMidYMid meet">

<g transform="translate(0.000000,512.000000) scale(0.100000,-0.100000)"
fill="#000000" stroke="none">
<path d="M105 4591 c-46 -21 -79 -54 -94 -94 -7 -18 -11 -161 -11 -401 0 -366
0 -372 23 -416 60 -119 208 -127 291 -16 20 26 21 43 24 316 l3 289 289 3
c275 3 290 4 317 24 15 11 38 36 51 54 47 69 18 186 -58 233 -34 22 -43 22
-415 25 -353 2 -383 1 -420 -17z"/>
<path d="M4219 4600 c-73 -22 -119 -87 -119 -167 0 -55 24 -101 73 -137 27
-20 42 -21 317 -24 l289 -3 3 -289 c3 -273 4 -290 24 -316 45 -61 113 -89 181
-74 51 12 84 39 111 90 22 44 22 50 22 416 0 240 -4 383 -11 401 -15 40 -48
73 -94 94 -37 17 -70 19 -405 18 -201 0 -377 -4 -391 -9z"/>
<path d="M812 3917 c-53 -10 -107 -61 -121 -114 -15 -53 -15 -2433 0 -2486 14
-53 68 -104 121 -114 77 -16 140 10 186 77 l22 33 0 1247 0 1247 -22 33 c-46
67 -109 93 -186 77z"/>
<path d="M1501 3919 c-42 -9 -79 -36 -108 -79 l-23 -33 0 -907 0 -907 23 -33
c32 -48 69 -72 120 -77 88 -10 164 41 187 126 7 28 10 318 8 918 -3 848 -4
879 -22 910 -38 63 -115 97 -185 82z"/>
<path d="M3547 3918 c-47 -10 -87 -39 -113 -81 -18 -31 -19 -62 -22 -910 -2
-600 1 -890 8 -918 23 -85 99 -136 187 -126 51 5 88 29 121 77 l22 33 0 907 0
907 -22 33 c-45 66 -109 94 -181 78z"/>
<path d="M4231 3919 c-42 -9 -79 -36 -108 -79 l-23 -33 0 -1247 0 -1247 23
-33 c45 -67 108 -93 185 -77 53 10 107 62 122 116 7 27 9 427 8 1263 l-3 1223
-23 36 c-38 62 -110 93 -181 78z"/>
<path d="M2130 3898 c-18 -13 -43 -36 -54 -51 -21 -28 -21 -33 -24 -933 -2
-886 -2 -905 18 -943 27 -55 72 -84 136 -89 71 -6 133 29 163 91 21 43 21 50
21 928 l0 885 -22 44 c-32 63 -77 90 -148 90 -43 0 -65 -6 -90 -22z"/>
<path d="M2809 3897 c-19 -12 -44 -42 -56 -67 l-23 -44 0 -1226 0 -1226 23
-44 c31 -63 76 -90 147 -90 63 0 106 22 144 73 l21 28 0 1259 0 1259 -21 28
c-38 51 -81 73 -144 73 -43 0 -66 -6 -91 -23z"/>
<path d="M131 1530 c-48 -11 -83 -40 -108 -90 -23 -44 -23 -50 -23 -417 0
-410 1 -417 59 -466 55 -46 80 -49 476 -45 361 3 371 4 405 25 76 47 105 164
58 233 -13 18 -36 43 -51 54 -27 20 -42 21 -318 24 l-289 3 0 274 c0 170 -4
284 -11 302 -28 76 -116 121 -198 103z"/>
<path d="M1504 1531 c-79 -19 -128 -83 -128 -167 -1 -126 131 -204 249 -148
116 55 118 243 3 296 -45 22 -87 28 -124 19z"/>
<path d="M2194 1530 c-114 -26 -170 -148 -114 -248 56 -100 210 -114 279 -26
99 126 -11 309 -165 274z"/>
<path d="M3551 1530 c-18 -5 -45 -17 -60 -27 -33 -24 -71 -98 -71 -138 0 -40
38 -114 71 -138 97 -70 247 -10 265 105 21 125 -83 225 -205 198z"/>
<path d="M4911 1530 c-39 -9 -76 -35 -105 -74 -20 -26 -21 -43 -24 -316 l-3
-289 -289 -3 c-275 -3 -290 -4 -317 -24 -15 -11 -38 -36 -50 -54 -48 -69 -19
-186 57 -233 34 -21 44 -22 405 -25 396 -4 421 -1 476 45 58 49 59 57 59 463
0 391 -2 413 -48 463 -36 40 -103 60 -161 47z"/>
</g>
</svg>
